/* XPM */
static char *ubudroid_server[] = {
/* columns rows colors chars-per-pixel */
"41 48 23 1",
"  c black",
". c #0D1004",
"X c #0D1005",
"o c #0F1205",
"O c #313B11",
"+ c #313C11",
"@ c #3C4915",
"# c #475718",
"$ c #475719",
"% c #51641C",
"& c #52641C",
"* c #5C7020",
"= c #5C7120",
"- c #6F8826",
"; c #6F8827",
": c #79942A",
"> c #829F2D",
", c #8BAA30",
"< c #8BAB30",
"1 c #94B533",
"2 c #9DC036",
"3 c #A5CA39",
"4 c None",
/* pixels */
"44444444444444444444444444444444444444444",
"4444444444442*             =2            ",
"444444444444>2.44444444444.2>            ",
"444444444444O3;           -3+444444444444",
"4444444444444:3#;<33333,-$3:             ",
"4444444444444%3333333333333&     44444444",
"44444444444o;333333333333333-o44444444444",
"4444444444o<33333333333333333,o4444444444",
"4444444444;3333333333333333333-  44444444",
"444444444@3333  333333333  3333@444444444",
"44444444 13333  333333333  33331 44444444",
"44444444#33333333333333333333333$44444444",
"4444444 :33333333333333333333333: 4444444",
"4444444 2333333333333333333333332 4444444",
"4444444 3333333333333333333333333 4444444",
"444444443333333333333333333333333        ",
"4X>33>X                           X>33>X4",
" >3333> 3333333333333333333333333 >3333> ",
" 333333 3333333333333333333333333 333333 ",
" 333333 3333333333333333333333333 333333 ",
" 333333 3333333333333333333333333 333333 ",
" 333333 3333333333333333333333333 333333 ",
" 333333 3333333333333333333333333 333333 ",
" 333333 3333333333333333333333333 333333 ",
" 333333 3333333333333333333333333 333333 ",
" 333333 3333333333333333333333333 333333 ",
" 333333 3333333333333333333333333 333333 ",
" 333333 3333333333333333333333333 333333 ",
" 333333 3333333333333333333333333 333333 ",
" 333333 3333333333333333333333333 333333 ",
" 333333 3333333333333333333333333 333333 ",
" >3333> 3333333333333333333333333 >3333> ",
"4X>33>X 3333333333333333333333333 X>33>X4",
"444444443333333333333333333333333        ",
"4444444 3333333333333333333333333 4444444",
"4444444 3333333333333333333333333 4444444",
"4444444 >33333333333333333333333> 4444444",
"44444444X>333333333333333333333>X44444444",
"4444444444444333333   333333     44444444",
"444444444444 333333 4 333333 444444444444",
"444444444444 333333 4 333333 444444444444",
"444444444444 333333 4 333333 444444444444",
"444444444444 333333 4 333333 444444444444",
"444444444444 333333 4 333333 444444444444",
"444444444444 333333 4 333333 444444444444",
"444444444444 >3333> 4 >3333> 444444444444",
"4444444444444X>33>X444X>33>X4444444444444",
"44444444444444444444444444444444444444444"
};
